# xmcd
#
# Track frame offsets:
#	150
#	14025
#	23813
#	40262
#	54551
#	69201
#	85834
#	99285
#	115437
#	129414
#	143159
#	154639
#	166009
#	181074
#	196410
#	211448
#	226821
#	241212
#
# Disc length: 3413 seconds
#
# Revision: 1
# Processed by: cddbd v1.5.2PL0 Copyright (c) Steve Scherf et al.
# Submitted via: audiograbber 1.82.02
#
DISCID=e40d5312
DTITLE=Various Artist - Country Radio - July 2019
DYEAR=2019
DGENRE=Country
TTITLE0=Luke Combs - Beer Never Broke My Heart
TTITLE1=Eric Dodd - Baecation
TTITLE2=Randy Houser - No Stone Unturned
TTITLE3=Jake Owen - Homemade
TTITLE4=Seaforth - Love That
TTITLE5=Ronnie Milsap (Ft. Dolly Parton) - Smokey Mountain Rain
TTITLE6=Brown and Gray - Last To Know
TTITLE7=Kiefer Sutherland - Something You Love
TTITLE8=Keith Urban - We Were
TTITLE9=Jameson Rodgers - Some Girls
TTITLE10=Colt Ford - We The People
TTITLE11=Haley and Michaels - Hail Mary
TTITLE12=Carrie Underwood - Southbound
TTITLE13=Michael Ray - Her World Or Mine
TTITLE14=Kree Harrison - I Love The Lie
TTITLE15=Jon Pardi - Heartache Medication
TTITLE16=Walker Hayes - Don't Let Her
TTITLE17=Richard Schroder - Let's See How Far We Can Go
EXTD=
EXTT0=
EXTT1=
EXTT2=
EXTT3=
EXTT4=
EXTT5=
EXTT6=
EXTT7=
EXTT8=
EXTT9=
EXTT10=
EXTT11=
EXTT12=
EXTT13=
EXTT14=
EXTT15=
EXTT16=
EXTT17=
PLAYORDER=
